<?xml version="1.0" encoding="UTF-8"?>
<svg width="100%" height="100%" viewBox="0 0 639 233" version="1.1" xmlns="http://www.w3.org/2000/svg" xmlns:xlink="http://www.w3.org/1999/xlink">
    <!-- Generator: Sketch 59.1 (86144) - https://sketch.com -->
    <title>Group 8</title>
    <desc>Created with Sketch.</desc>
    <defs>
        <linearGradient x1="107.178194%" y1="70.2459715%" x2="-19.5861816%" y2="46.8060871%" id="linearGradient-1">
            <stop stop-color="#68C3EC" offset="0%"></stop>
            <stop stop-color="#38589D" offset="69.7763142%"></stop>
            <stop stop-color="#170E66" offset="100%"></stop>
        </linearGradient>
    </defs>
    <g id="Templates" stroke="none" stroke-width="1" fill="none" fill-rule="evenodd">
        <g id="Newsletter_Template-Option_02-Copy" transform="translate(-80.000000, -2445.000000)">
            <g id="Group-8" transform="translate(80.000000, 2445.000000)">
                <g id="Group-7">
                    <rect id="Rectangle-Copy-9" fill="url(#linearGradient-1)" x="0" y="0" width="639" height="233"></rect>
                    <rect id="Rectangle-Copy-6" fill="#68C3EC" x="22" y="104" width="218" height="79"></rect>
                    <rect id="Rectangle-Copy-7" fill="#68C3EC" x="22" y="48" width="300" height="118"></rect>
                    <path d="M41.296,117 L41.296,96.98 L46.28,96.98 L51.544,110.644 L56.696,96.98 L61.624,96.98 L61.624,117 L57.9,117 L57.9,101.88 L51.936,117 L50.732,117 L44.656,101.88 L44.656,117 L41.296,117 Z M72.1613333,114.648 C73.4120063,114.648 74.3966631,114.214004 75.1153333,113.346 C75.8340036,112.477996 76.1933333,111.288008 76.1933333,109.776 L76.1933333,109.58 C76.1933333,108.067992 75.8340036,106.878004 75.1153333,106.01 C74.3966631,105.141996 73.4120063,104.708 72.1613333,104.708 C70.8919937,104.708 69.8980036,105.137329 69.1793333,105.996 C68.4606631,106.854671 68.1013333,108.039992 68.1013333,109.552 L68.1013333,109.776 C68.1013333,111.288008 68.4606631,112.477996 69.1793333,113.346 C69.8980036,114.214004 70.8919937,114.648 72.1613333,114.648 Z M77.5373333,115.208 C76.1186596,116.58934 74.3173443,117.28 72.1333333,117.28 C69.9493224,117.28 68.1526737,116.58934 66.7433333,115.208 C65.333993,113.82666 64.6293333,112.034678 64.6293333,109.832 L64.6293333,109.608 C64.6293333,107.367989 65.3386596,105.548 66.7573333,104.148 C68.1760071,102.747993 69.9773224,102.048 72.1613333,102.048 C74.3266775,102.048 76.1186596,102.73866 77.5373333,104.12 C78.9560071,105.50134 79.6653333,107.302656 79.6653333,109.524 L79.6653333,109.748 C79.6653333,112.006678 78.9560071,113.82666 77.5373333,115.208 Z M88.0186667,117.28 C86.1146571,117.28 84.5653393,116.63134 83.3706667,115.334 C82.175994,114.03666 81.5786667,112.230678 81.5786667,109.916 L81.5786667,109.692 C81.5786667,107.377322 82.1946605,105.524674 83.4266667,104.134 C84.6586728,102.743326 86.2359904,102.048 88.1586667,102.048 C90.3240108,102.048 91.8826619,102.897325 92.8346667,104.596 L92.8346667,95.58 L96.2226667,95.58 L96.2226667,117 L92.8346667,117 L92.8346667,114.536 C92.4239979,115.301337 91.7753378,115.949997 90.8886667,116.482 C90.0019956,117.014003 89.0453385,117.28 88.0186667,117.28 Z M88.8586667,114.592 C90.0906728,114.592 91.0799963,114.181337 91.8266667,113.36 C92.5733371,112.538663 92.9466667,111.334675 92.9466667,109.748 L92.9466667,109.524 C92.9466667,107.937325 92.6013368,106.738004 91.9106667,105.926 C91.2199965,105.113996 90.2493396,104.708 88.9986667,104.708 C87.7479937,104.708 86.7773368,105.132662 86.0866667,105.982 C85.3959965,106.831338 85.0506667,108.039992 85.0506667,109.608 L85.0506667,109.832 C85.0506667,111.381341 85.4006632,112.561996 86.1006667,113.374 C86.8006702,114.186004 87.7199943,114.592 88.8586667,114.592 Z M106.508,117.28 C104.323989,117.28 102.54134,116.608007 101.16,115.264 C99.7786598,113.919993 99.088,112.109345 99.088,109.832 L99.088,109.608 C99.088,107.367989 99.7739931,105.548 101.146,104.148 C102.518007,102.747993 104.258656,102.048 106.368,102.048 C108.346677,102.048 109.993993,102.663994 111.31,103.896 C112.626007,105.128006 113.284,106.975988 113.284,109.44 L113.284,110.42 L102.56,110.42 C102.616,111.820007 102.98933,112.89333 103.68,113.64 C104.37067,114.38667 105.341327,114.76 106.592,114.76 C108.570677,114.76 109.690665,114.013341 109.952,112.52 L113.228,112.52 C112.985332,114.050674 112.276006,115.226663 111.1,116.048 C109.923994,116.869337 108.393343,117.28 106.508,117.28 Z M102.616,108.152 L109.924,108.152 C109.755999,105.725321 108.570678,104.512 106.368,104.512 C105.359995,104.512 104.52467,104.833997 103.862,105.478 C103.19933,106.122003 102.784001,107.013328 102.616,108.152 Z M129.682667,117.28 C127.06932,117.28 125.114006,116.701339 123.816667,115.544 C122.519327,114.386661 121.796001,112.80001 121.646667,110.784 L125.230667,110.784 C125.380001,111.960006 125.771997,112.869997 126.406667,113.514 C127.041337,114.158003 128.133326,114.48 129.682667,114.48 C130.802672,114.48 131.712663,114.195336 132.412667,113.626 C133.11267,113.056664 133.462667,112.314671 133.462667,111.4 C133.462667,110.466662 133.173336,109.785335 132.594667,109.356 C132.015997,108.926665 130.914675,108.581335 129.290667,108.32 C126.807988,107.983998 125.011339,107.382004 123.900667,106.514 C122.789994,105.645996 122.234667,104.297342 122.234667,102.468 C122.234667,100.806658 122.87866,99.4346721 124.166667,98.352 C125.454673,97.2693279 127.134656,96.728 129.206667,96.728 C131.372011,96.728 133.079994,97.2179951 134.330667,98.198 C135.58134,99.1780049 136.299999,100.61999 136.486667,102.524 L133.070667,102.524 C132.883999,101.478661 132.48267,100.718002 131.866667,100.242 C131.250664,99.7659976 130.364006,99.528 129.206667,99.528 C128.105328,99.528 127.256003,99.7659976 126.658667,100.242 C126.06133,100.718002 125.762667,101.357329 125.762667,102.16 C125.762667,103.018671 126.037997,103.662665 126.588667,104.092 C127.139336,104.521335 128.245325,104.857332 129.906667,105.1 C132.389346,105.436002 134.199994,106.037996 135.338667,106.906 C136.477339,107.774004 137.046667,109.169324 137.046667,111.092 C137.046667,112.865342 136.36534,114.339994 135.002667,115.516 C133.639993,116.692006 131.866678,117.28 129.682667,117.28 Z M146.632,117.28 C144.447989,117.28 142.66534,116.608007 141.284,115.264 C139.90266,113.919993 139.212,112.109345 139.212,109.832 L139.212,109.608 C139.212,107.367989 139.897993,105.548 141.27,104.148 C142.642007,102.747993 144.382656,102.048 146.492,102.048 C148.470677,102.048 150.117993,102.663994 151.434,103.896 C152.750007,105.128006 153.408,106.975988 153.408,109.44 L153.408,110.42 L142.684,110.42 C142.74,111.820007 143.11333,112.89333 143.804,113.64 C144.49467,114.38667 145.465327,114.76 146.716,114.76 C148.694677,114.76 149.814665,114.013341 150.076,112.52 L153.352,112.52 C153.109332,114.050674 152.400006,115.226663 151.224,116.048 C150.047994,116.869337 148.517343,117.28 146.632,117.28 Z M142.74,108.152 L150.048,108.152 C149.879999,105.725321 148.694678,104.512 146.492,104.512 C145.483995,104.512 144.64867,104.833997 143.986,105.478 C143.32333,106.122003 142.908001,107.013328 142.74,108.152 Z M162.657333,117.28 C160.510656,117.28 158.742007,116.612673 157.351333,115.278 C155.96066,113.943327 155.265333,112.137345 155.265333,109.86 L155.265333,109.636 C155.265333,107.358655 155.97466,105.524674 157.393333,104.134 C158.812007,102.743326 160.566656,102.048 162.657333,102.048 C164.449342,102.048 165.965994,102.491329 167.207333,103.378 C168.448673,104.264671 169.162666,105.650657 169.349333,107.536 L166.073333,107.536 C165.811999,105.687991 164.69201,104.764 162.713333,104.764 C161.537327,104.764 160.58067,105.193329 159.843333,106.052 C159.105996,106.910671 158.737333,108.086659 158.737333,109.58 L158.737333,109.804 C158.737333,111.372008 159.096663,112.575996 159.815333,113.416 C160.534004,114.256004 161.527994,114.676 162.797333,114.676 C163.730671,114.676 164.528663,114.400669 165.191333,113.85 C165.854003,113.299331 166.232,112.529338 166.325333,111.54 L169.433333,111.54 C169.302666,113.257342 168.630673,114.643328 167.417333,115.698 C166.203994,116.752672 164.617343,117.28 162.657333,117.28 Z M177.058667,117.28 C175.527992,117.28 174.305338,116.822671 173.390667,115.908 C172.475995,114.993329 172.018667,113.602676 172.018667,111.736 L172.018667,102.356 L175.406667,102.356 L175.406667,111.344 C175.406667,112.445339 175.639998,113.257331 176.106667,113.78 C176.573336,114.302669 177.301328,114.564 178.290667,114.564 C179.261338,114.564 180.07333,114.256003 180.726667,113.64 C181.380003,113.023997 181.706667,112.165339 181.706667,111.064 L181.706667,102.356 L185.094667,102.356 L185.094667,117 L181.706667,117 L181.706667,114.704 C181.314665,115.469337 180.722004,116.089998 179.928667,116.566 C179.135329,117.042002 178.178672,117.28 177.058667,117.28 Z M188.912,117 L188.912,102.356 L192.3,102.356 L192.3,105.1 C193.270672,103.13999 194.857322,102.150667 197.06,102.132 L197.06,105.296 C195.473325,105.314667 194.283337,105.632 193.49,106.248 C192.696663,106.864003 192.3,107.909326 192.3,109.384 L192.3,117 L188.912,117 Z M199.925333,117 L199.925333,102.356 L203.313333,102.356 L203.313333,117 L199.925333,117 Z M203.005333,99.388 C202.613331,99.7613352 202.137336,99.948 201.577333,99.948 C201.017331,99.948 200.541335,99.7613352 200.149333,99.388 C199.757331,99.0146648 199.561333,98.557336 199.561333,98.016 C199.561333,97.4559972 199.757331,96.9893352 200.149333,96.616 C200.541335,96.2426648 201.017331,96.056 201.577333,96.056 C202.137336,96.056 202.613331,96.2426648 203.005333,96.616 C203.397335,96.9893352 203.593333,97.4559972 203.593333,98.016 C203.593333,98.557336 203.397335,99.0146648 203.005333,99.388 Z M212.226667,117.252 C210.789326,117.252 209.69267,116.87867 208.936667,116.132 C208.180663,115.38533 207.802667,114.312007 207.802667,112.912 L207.802667,104.904 L205.842667,104.904 L205.842667,102.356 L207.802667,102.356 L207.802667,99.136 L211.190667,99.136 L211.190667,102.356 L214.410667,102.356 L214.410667,104.904 L211.190667,104.904 L211.190667,112.604 C211.190667,113.854673 211.750661,114.48 212.870667,114.48 C213.524003,114.48 214.074664,114.386668 214.522667,114.2 L214.522667,116.888 C213.86933,117.130668 213.104004,117.252 212.226667,117.252 Z M219.012,122.012 L221.672,115.516 L215.876,102.356 L219.544,102.356 L223.436,111.792 L227.02,102.356 L230.324,102.356 L222.344,122.012 L219.012,122.012 Z M50.06,147.28 C46.9613178,147.28 44.5580085,146.365342 42.85,144.536 C41.1419915,142.706658 40.288,140.233349 40.288,137.116 L40.288,136.892 C40.288,133.905318 41.2073241,131.455343 43.046,129.542 C44.8846759,127.628657 47.203986,126.672 50.004,126.672 C52.3933453,126.672 54.3673255,127.269327 55.926,128.464 C57.4846745,129.658673 58.3759989,131.394655 58.6,133.672 L54.82,133.672 C54.3906645,130.983987 52.7946805,129.64 50.032,129.64 C48.2586578,129.64 46.8446719,130.28866 45.79,131.586 C44.7353281,132.88334 44.208,134.642656 44.208,136.864 L44.208,137.088 C44.208,139.346678 44.7213282,141.105994 45.748,142.366 C46.7746718,143.626006 48.2119908,144.256 50.06,144.256 C51.4786738,144.256 52.6406621,143.89667 53.546,143.178 C54.4513379,142.45933 54.9973324,141.40934 55.184,140.028 L58.824,140.028 C58.5439986,142.380012 57.6246745,144.17666 56.066,145.418 C54.5073255,146.65934 52.5053456,147.28 50.06,147.28 Z M61.5773333,147 L61.5773333,125.58 L64.9653333,125.58 L64.9653333,134.68 C65.3386685,133.914663 65.9359959,133.284669 66.7573333,132.79 C67.5786708,132.295331 68.558661,132.048 69.6973333,132.048 C71.2466744,132.048 72.4693289,132.519329 73.3653333,133.462 C74.2613378,134.404671 74.7093333,135.846657 74.7093333,137.788 L74.7093333,147 L71.3213333,147 L71.3213333,138.096 C71.3213333,136.994661 71.0880023,136.182669 70.6213333,135.66 C70.1546643,135.137331 69.4173384,134.876 68.4093333,134.876 C67.4013283,134.876 66.5753366,135.17933 65.9313333,135.786 C65.2873301,136.39267 64.9653333,137.255994 64.9653333,138.376 L64.9653333,147 L61.5773333,147 Z M82.2506667,147.28 C80.8133261,147.28 79.6373379,146.92067 78.7226667,146.202 C77.8079954,145.48333 77.3506667,144.396007 77.3506667,142.94 C77.3506667,141.334659 78.0319932,140.15867 79.3946667,139.412 C80.7573401,138.66533 82.5773219,138.292 84.8546667,138.292 L86.6746667,138.292 L86.6746667,137.536 C86.6746667,136.527995 86.474002,135.786002 86.0726667,135.31 C85.6713313,134.833998 84.9853382,134.596 84.0146667,134.596 C82.3159915,134.596 81.3826675,135.361326 81.2146667,136.892 L77.9386667,136.892 C78.069334,135.267992 78.7086609,134.054671 79.8566667,133.252 C81.0046724,132.449329 82.4559912,132.048 84.2106667,132.048 C88.1120195,132.048 90.0626667,133.830649 90.0626667,137.396 L90.0626667,147 L86.7306667,147 L86.7306667,145.208 C85.6853281,146.58934 84.1920097,147.28 82.2506667,147.28 Z M83.0626667,144.844 C84.126672,144.844 84.9946633,144.578003 85.6666667,144.046 C86.33867,143.513997 86.6746667,142.790671 86.6746667,141.876 L86.6746667,140.42 L84.9386667,140.42 C82.1199859,140.42 80.7106667,141.213325 80.7106667,142.8 C80.7106667,144.162673 81.4946588,144.844 83.0626667,144.844 Z M93.768,147 L93.768,132.356 L97.156,132.356 L97.156,134.596 C97.5293352,133.867996 98.1079961,133.261336 98.892,132.776 C99.6760039,132.290664 100.581328,132.048 101.608,132.048 C103.661344,132.048 105.042663,132.925325 105.752,134.68 C106.293336,133.821329 107.011996,133.168002 107.908,132.72 C108.804004,132.271998 109.737328,132.048 110.708,132.048 C112.145341,132.048 113.316662,132.519329 114.222,133.462 C115.127338,134.404671 115.58,135.82799 115.58,137.732 L115.58,147 L112.192,147 L112.192,137.956 C112.192,135.902656 111.324009,134.876 109.588,134.876 C108.691996,134.876 107.931336,135.169997 107.306,135.758 C106.680664,136.346003 106.368,137.171995 106.368,138.236 L106.368,147 L102.98,147 L102.98,137.956 C102.98,135.902656 102.112009,134.876 100.376,134.876 C99.4799955,134.876 98.7193365,135.169997 98.094,135.758 C97.4686635,136.346003 97.156,137.171995 97.156,138.236 L97.156,147 L93.768,147 Z M119.285333,152.012 L119.285333,132.356 L122.673333,132.356 L122.673333,134.708 C123.102669,133.96133 123.751329,133.331336 124.619333,132.818 C125.487338,132.304664 126.434662,132.048 127.461333,132.048 C129.346676,132.048 130.900661,132.715327 132.123333,134.05 C133.346006,135.384673 133.957333,137.199989 133.957333,139.496 L133.957333,139.72 C133.957333,142.034678 133.355339,143.873327 132.151333,145.236 C130.947327,146.598673 129.38401,147.28 127.461333,147.28 C126.359994,147.28 125.389338,147.042002 124.549333,146.566 C123.709329,146.089998 123.084002,145.469337 122.673333,144.704 L122.673333,152.012 L119.285333,152.012 Z M126.621333,144.592 C127.872006,144.592 128.828663,144.181337 129.491333,143.36 C130.154003,142.538663 130.485333,141.344008 130.485333,139.776 L130.485333,139.552 C130.485333,137.983992 130.126004,136.784671 129.407333,135.954 C128.688663,135.123329 127.750672,134.708 126.593333,134.708 C125.379994,134.708 124.40467,135.123329 123.667333,135.954 C122.929996,136.784671 122.561333,137.983992 122.561333,139.552 L122.561333,139.776 C122.561333,141.362675 122.920663,142.561996 123.639333,143.374 C124.358004,144.186004 125.351994,144.592 126.621333,144.592 Z M136.906667,147 L136.906667,132.356 L140.294667,132.356 L140.294667,147 L136.906667,147 Z M139.986667,129.388 C139.594665,129.761335 139.118669,129.948 138.558667,129.948 C137.998664,129.948 137.522669,129.761335 137.130667,129.388 C136.738665,129.014665 136.542667,128.557336 136.542667,128.016 C136.542667,127.455997 136.738665,126.989335 137.130667,126.616 C137.522669,126.242665 137.998664,126.056 138.558667,126.056 C139.118669,126.056 139.594665,126.242665 139.986667,126.616 C140.378669,126.989335 140.574667,127.455997 140.574667,128.016 C140.574667,128.557336 140.378669,129.014665 139.986667,129.388 Z M150.776,144.648 C152.026673,144.648 153.01133,144.214004 153.73,143.346 C154.44867,142.477996 154.808,141.288008 154.808,139.776 L154.808,139.58 C154.808,138.067992 154.44867,136.878004 153.73,136.01 C153.01133,135.141996 152.026673,134.708 150.776,134.708 C149.50666,134.708 148.51267,135.137329 147.794,135.996 C147.07533,136.854671 146.716,138.039992 146.716,139.552 L146.716,139.776 C146.716,141.288008 147.07533,142.477996 147.794,143.346 C148.51267,144.214004 149.50666,144.648 150.776,144.648 Z M156.152,145.208 C154.733326,146.58934 152.932011,147.28 150.748,147.28 C148.563989,147.28 146.76734,146.58934 145.358,145.208 C143.94866,143.82666 143.244,142.034678 143.244,139.832 L143.244,139.608 C143.244,137.367989 143.953326,135.548 145.372,134.148 C146.790674,132.747993 148.591989,132.048 150.776,132.048 C152.941344,132.048 154.733326,132.73866 156.152,134.12 C157.570674,135.50134 158.28,137.302656 158.28,139.524 L158.28,139.748 C158.28,142.006678 157.570674,143.82666 156.152,145.208 Z M161.145333,147 L161.145333,132.356 L164.533333,132.356 L164.533333,134.68 C164.906669,133.914663 165.503996,133.284669 166.325333,132.79 C167.146671,132.295331 168.126661,132.048 169.265333,132.048 C170.814674,132.048 172.037329,132.519329 172.933333,133.462 C173.829338,134.404671 174.277333,135.846657 174.277333,137.788 L174.277333,147 L170.889333,147 L170.889333,138.096 C170.889333,136.994661 170.656002,136.182669 170.189333,135.66 C169.722664,135.137331 168.985338,134.876 167.977333,134.876 C166.969328,134.876 166.143337,135.17933 165.499333,135.786 C164.85533,136.39267 164.533333,137.255994 164.533333,138.376 L164.533333,147 L161.145333,147 Z M182.994667,147.28 C181.109324,147.28 179.634672,146.860004 178.570667,146.02 C177.506661,145.179996 176.937334,143.985341 176.862667,142.436 L180.054667,142.436 C180.148,143.220004 180.418664,143.807998 180.866667,144.2 C181.314669,144.592002 182.014662,144.788 182.966667,144.788 C184.721342,144.788 185.598667,144.162673 185.598667,142.912 C185.598667,142.33333 185.360669,141.899335 184.884667,141.61 C184.448331,141.344776 183.733592,141.12269 182.740432,140.943736 L182.462667,140.896 C180.502657,140.578665 179.130671,140.098003 178.346667,139.454 C177.562663,138.809997 177.170667,137.806673 177.170667,136.444 C177.170667,135.06266 177.711995,133.984671 178.794667,133.21 C179.877339,132.435329 181.165326,132.048 182.658667,132.048 C186.168018,132.048 188.081332,133.522652 188.398667,136.472 L185.262667,136.472 C185.113333,135.799997 184.838002,135.305335 184.436667,134.988 C184.035331,134.670665 183.442671,134.512 182.658667,134.512 C181.930663,134.512 181.361335,134.670665 180.950667,134.988 C180.539998,135.305335 180.334667,135.725331 180.334667,136.248 C180.334667,136.770669 180.549331,137.162665 180.978667,137.424 C181.408002,137.685335 182.201328,137.918666 183.358667,138.124 C185.262676,138.422668 186.653329,138.879997 187.530667,139.496 C188.408004,140.112003 188.846667,141.147993 188.846667,142.604 C188.846667,144.097341 188.338005,145.249996 187.320667,146.062 C186.303328,146.874004 184.861343,147.28 182.994667,147.28 Z" id="ModeSecurityChampions" fill="#000000" fill-rule="nonzero"></path>
                    <g id="Group-2-Copy-2" transform="translate(435.000000, 41.000000)">
                        <path d="M59,0 C59,0 40.4470117,35.5459181 6.36781261,39.1820757 C2.52589873,39.5899047 -0.324028921,42.701983 0.029671087,46.3114602 C2.11324872,67.5052279 12.2282558,131.601082 59,148 L59,0 Z" id="Fill-1" fill="#EAA824"></path>
                        <path d="M58,0 C58,0 76.5529883,35.5459181 110.632187,39.1820757 C114.474101,39.5899047 117.324029,42.701983 116.970329,46.3114602 C114.886751,67.5052279 104.771744,131.601082 58,148 L58,0 Z" id="Fill-4" fill="#ED8C22"></path>
                    </g>
                    <g id="Group-Copy-2" transform="translate(422.000000, 94.000000)">
                        <path d="M1.23479808,18.6191696 C5.98729101,3.67230911 22.270486,-3.9247191 37.4943438,2.03817438 C47.7042634,6.0367096 57.5617162,10.7051268 68.9084383,11.2995292 C69.6094988,11.337269 70.3047494,11.3542519 71,11.3674609 L71,11.3674609 L71,41.3366616 C61.4078657,41.6423542 51.8350978,44.0954433 42.2855694,48.7751825 C35.739756,51.9830683 29.0583784,54.0983858 21.6430175,52.3963194 C5.75295864,48.7563126 -3.48477213,33.4584716 1.23479808,18.6191696 Z M27.2050223,10.8597704 C18.2984555,10.884391 11.3808089,17.5416974 11.2626744,26.1973279 C11.13873,35.2926275 17.8723966,41.9574818 27.1972758,41.9745032 C36.3168721,41.9933347 43.3197304,35.0643015 43.2015959,26.1388312 C43.0873347,17.5020706 36.1038426,10.8315553 27.2050223,10.8597704 Z M26.625,17.6666667 C31.5252607,17.6666667 35.5,21.6227452 35.5,26.5 C35.5,31.3797445 31.5252607,35.3333333 26.625,35.3333333 C21.7222379,35.3333333 17.75,31.3797445 17.75,26.5 C17.75,21.6227452 21.7222379,17.6666667 26.625,17.6666667 Z" id="Combined-Shape" fill="#83DBFF"></path>
                        <path d="M99.7141486,4.2247494 C106.259898,1.01691536 112.94121,-1.09836814 120.356498,0.603670856 C136.246401,4.24550597 145.485977,19.5412134 140.764517,34.3802763 C136.012071,49.326896 119.729035,56.9238017 104.505327,50.9628913 C94.2955078,46.9625336 84.4381518,42.2941916 73.0915411,41.6997988 C72.3904875,41.6620596 71.6952438,41.6469639 71,41.6318682 L71,41.6318682 L71,11.6631504 C80.5920401,11.3574627 90.164714,8.90441317 99.7141486,4.2247494 Z M114.802294,11.0253191 C105.682787,11.0064879 98.6799977,17.9372964 98.7981311,26.8626229 C98.9123912,35.4973573 105.895815,42.1677652 114.794548,42.1395505 C123.701027,42.1149303 130.618606,35.4577312 130.736739,26.8022401 C130.860682,17.7070872 124.127082,11.0423402 114.802294,11.0253191 Z M115.375,17.6666667 C120.277762,17.6666667 124.25,21.6227452 124.25,26.5 C124.25,31.3797445 120.277762,35.3333333 115.375,35.3333333 C110.474739,35.3333333 106.5,31.3797445 106.5,26.5 C106.5,21.6227452 110.474739,17.6666667 115.375,17.6666667 Z" id="Combined-Shape" fill="#68C3EC"></path>
                    </g>
                </g>
                <path d="M40.312,84 L40.312,72.56 L42.856,72.56 L47.672,80.832 L47.672,72.56 L49.608,72.56 L49.608,84 L47.4,84 L42.248,75.232 L42.248,84 L40.312,84 Z M55.816,82.656 C56.5306702,82.656 57.0933313,82.4080025 57.504,81.912 C57.9146687,81.4159975 58.12,80.7360043 58.12,79.872 L58.12,79.76 C58.12,78.8959957 57.9146687,78.2160025 57.504,77.72 C57.0933313,77.2239975 56.5306702,76.976 55.816,76.976 C55.090663,76.976 54.5226687,77.2213309 54.112,77.712 C53.7013313,78.2026691 53.496,78.8799957 53.496,79.744 L53.496,79.872 C53.496,80.7360043 53.7013313,81.4159975 54.112,81.912 C54.5226687,82.4080025 55.090663,82.656 55.816,82.656 Z M58.888,82.976 C58.0773293,83.7653373 57.0480062,84.16 55.8,84.16 C54.5519938,84.16 53.5253374,83.7653373 52.72,82.976 C51.9146626,82.1866627 51.512,81.162673 51.512,79.904 L51.512,79.776 C51.512,78.4959936 51.9173293,77.456 52.728,76.656 C53.5386707,75.855996 54.5679938,75.456 55.816,75.456 C57.0533395,75.456 58.0773293,75.8506627 58.888,76.64 C59.6986707,77.4293373 60.104,78.4586603 60.104,79.728 L60.104,79.856 C60.104,81.1466731 59.6986707,82.1866627 58.888,82.976 Z M64.696,84.144 C63.8746626,84.144 63.2480022,83.9306688 62.816,83.504 C62.3839978,83.0773312 62.168,82.464004 62.168,81.664 L62.168,77.088 L61.048,77.088 L61.048,75.632 L62.168,75.632 L62.168,73.792 L64.104,73.792 L64.104,75.632 L65.944,75.632 L65.944,77.088 L64.104,77.088 L64.104,81.488 C64.104,82.2026702 64.4239968,82.56 65.064,82.56 C65.4373352,82.56 65.7519987,82.5066672 66.008,82.4 L66.008,83.936 C65.6346648,84.0746674 65.1973358,84.144 64.696,84.144 Z M74.408,84.144 C73.5866626,84.144 72.9600022,83.9306688 72.528,83.504 C72.0959978,83.0773312 71.88,82.464004 71.88,81.664 L71.88,77.088 L70.76,77.088 L70.76,75.632 L71.88,75.632 L71.88,73.792 L73.816,73.792 L73.816,75.632 L75.656,75.632 L75.656,77.088 L73.816,77.088 L73.816,81.488 C73.816,82.2026702 74.1359968,82.56 74.776,82.56 C75.1493352,82.56 75.4639987,82.5066672 75.72,82.4 L75.72,83.936 C75.3466648,84.0746674 74.9093358,84.144 74.408,84.144 Z M77.464,84 L77.464,71.76 L79.4,71.76 L79.4,76.96 C79.6133344,76.5226645 79.9546643,76.1626681 80.424,75.88 C80.8933357,75.5973319 81.4533301,75.456 82.104,75.456 C82.9893378,75.456 83.6879974,75.7253306 84.2,76.264 C84.7120026,76.8026694 84.968,77.6266611 84.968,78.736 L84.968,84 L83.032,84 L83.032,78.912 C83.032,78.2826635 82.898668,77.8186682 82.632,77.52 C82.365332,77.2213318 81.9440029,77.072 81.368,77.072 C80.7919971,77.072 80.3200018,77.2453316 79.952,77.592 C79.5839982,77.9386684 79.4,78.4319968 79.4,79.072 L79.4,84 L77.464,84 Z M90.872,84.16 C89.6239938,84.16 88.6053373,83.7760038 87.816,83.008 C87.0266627,82.2399962 86.632,81.2053398 86.632,79.904 L86.632,79.776 C86.632,78.4959936 87.0239961,77.456 87.808,76.656 C88.5920039,75.855996 89.5866606,75.456 90.792,75.456 C91.9226723,75.456 92.8639962,75.8079965 93.616,76.512 C94.3680038,77.2160035 94.744,78.271993 94.744,79.68 L94.744,80.24 L88.616,80.24 C88.6480002,81.040004 88.8613314,81.6533312 89.256,82.08 C89.6506686,82.5066688 90.2053298,82.72 90.92,82.72 C92.0506723,82.72 92.6906659,82.2933376 92.84,81.44 L94.712,81.44 C94.5733326,82.314671 94.1680034,82.9866643 93.496,83.456 C92.8239966,83.9253357 91.9493387,84.16 90.872,84.16 Z M88.648,78.944 L92.824,78.944 C92.7279995,77.5573264 92.050673,76.864 90.792,76.864 C90.2159971,76.864 89.7386686,77.0479982 89.36,77.416 C88.9813314,77.7840018 88.7440005,78.2933301 88.648,78.944 Z M102.008,84 L99.448,75.632 L101.512,75.632 L103.176,81.68 L104.952,75.632 L106.568,75.632 L108.2,81.68 L109.944,75.632 L111.832,75.632 L109.208,84 L107.24,84 L105.688,78.368 L103.992,84 L102.008,84 Z M116.984,84.16 C115.735994,84.16 114.717337,83.7760038 113.928,83.008 C113.138663,82.2399962 112.744,81.2053398 112.744,79.904 L112.744,79.776 C112.744,78.4959936 113.135996,77.456 113.92,76.656 C114.704004,75.855996 115.698661,75.456 116.904,75.456 C118.034672,75.456 118.975996,75.8079965 119.728,76.512 C120.480004,77.2160035 120.856,78.271993 120.856,79.68 L120.856,80.24 L114.728,80.24 C114.76,81.040004 114.973331,81.6533312 115.368,82.08 C115.762669,82.5066688 116.31733,82.72 117.032,82.72 C118.162672,82.72 118.802666,82.2933376 118.952,81.44 L120.824,81.44 C120.685333,82.314671 120.280003,82.9866643 119.608,83.456 C118.935997,83.9253357 118.061339,84.16 116.984,84.16 Z M114.76,78.944 L118.936,78.944 C118.84,77.5573264 118.162673,76.864 116.904,76.864 C116.327997,76.864 115.850669,77.0479982 115.472,77.416 C115.093331,77.7840018 114.856,78.2933301 114.76,78.944 Z M124.776,84.16 C123.954663,84.16 123.282669,83.9546687 122.76,83.544 C122.237331,83.1333313 121.976,82.5120042 121.976,81.68 C121.976,80.7626621 122.365329,80.0906688 123.144,79.664 C123.922671,79.2373312 124.96266,79.024 126.264,79.024 L127.304,79.024 L127.304,78.592 C127.304,78.0159971 127.189334,77.5920014 126.96,77.32 C126.730666,77.0479986 126.338669,76.912 125.784,76.912 C124.813328,76.912 124.28,77.349329 124.184,78.224 L122.312,78.224 C122.386667,77.2959954 122.751997,76.602669 123.408,76.144 C124.064003,75.685331 124.893328,75.456 125.896,75.456 C128.125344,75.456 129.24,76.4746565 129.24,78.512 L129.24,84 L127.336,84 L127.336,82.976 C126.738664,83.7653373 125.885339,84.16 124.776,84.16 Z M125.24,82.768 C125.848003,82.768 126.343998,82.6160015 126.728,82.312 C127.112002,82.0079985 127.304,81.5946693 127.304,81.072 L127.304,80.24 L126.312,80.24 C124.701325,80.24 123.896,80.6933288 123.896,81.6 C123.896,82.3786706 124.343996,82.768 125.24,82.768 Z M131.464,84 L131.464,71.76 L133.4,71.76 L133.4,79.312 L136.392,75.632 L138.504,75.632 L135.256,79.472 L138.776,84 L136.536,84 L133.4,79.888 L133.4,84 L131.464,84 Z M143.784,84.16 C142.535994,84.16 141.517337,83.7760038 140.728,83.008 C139.938663,82.2399962 139.544,81.2053398 139.544,79.904 L139.544,79.776 C139.544,78.4959936 139.935996,77.456 140.72,76.656 C141.504004,75.855996 142.498661,75.456 143.704,75.456 C144.834672,75.456 145.775996,75.8079965 146.528,76.512 C147.280004,77.2160035 147.656,78.271993 147.656,79.68 L147.656,80.24 L141.528,80.24 C141.56,81.040004 141.773331,81.6533312 142.168,82.08 C142.562669,82.5066688 143.11733,82.72 143.832,82.72 C144.962672,82.72 145.602666,82.2933376 145.752,81.44 L147.624,81.44 C147.485333,82.314671 147.080003,82.9866643 146.408,83.456 C145.735997,83.9253357 144.861339,84.16 143.784,84.16 Z M141.56,78.944 L145.736,78.944 C145.64,77.5573264 144.962673,76.864 143.704,76.864 C143.127997,76.864 142.650669,77.0479982 142.272,77.416 C141.893331,77.7840018 141.656,78.2933301 141.56,78.944 Z M152.248,84.16 C151.170661,84.16 150.328003,83.9200024 149.72,83.44 C149.111997,82.9599976 148.786667,82.2773378 148.744,81.392 L150.568,81.392 C150.621334,81.8400022 150.775999,82.1759989 151.032,82.4 C151.288001,82.6240011 151.687997,82.736 152.232,82.736 C153.234672,82.736 153.736,82.3786702 153.736,81.664 C153.736,81.3333317 153.600001,81.0853342 153.328,80.92 C153.089999,80.7753326 152.707044,80.6531252 152.179126,80.5533751 L151.944,80.512 C150.823994,80.3306658 150.040002,80.0560018 149.592,79.688 C149.143998,79.3199982 148.92,78.7466706 148.92,77.968 C148.92,77.1786627 149.22933,76.5626689 149.848,76.12 C150.46667,75.6773311 151.202662,75.456 152.056,75.456 C154.061343,75.456 155.154666,76.2986582 155.336,77.984 L153.544,77.984 C153.458666,77.5999981 153.301334,77.3173342 153.072,77.136 C152.842666,76.9546658 152.504002,76.864 152.056,76.864 C151.639998,76.864 151.314668,76.9546658 151.08,77.136 C150.845332,77.3173342 150.728,77.5573318 150.728,77.856 C150.728,78.1546682 150.850665,78.3786659 151.096,78.528 C151.341335,78.6773341 151.794663,78.8106661 152.456,78.928 C153.544005,79.0986675 154.338664,79.3599982 154.84,79.712 C155.341336,80.0640018 155.592,80.6559958 155.592,81.488 C155.592,82.3413376 155.301336,82.9999977 154.72,83.464 C154.138664,83.9280023 153.314672,84.16 152.248,84.16 Z M160.136,84.144 C159.314663,84.144 158.688002,83.9306688 158.256,83.504 C157.823998,83.0773312 157.608,82.464004 157.608,81.664 L157.608,77.088 L156.488,77.088 L156.488,75.632 L157.608,75.632 L157.608,73.792 L159.544,73.792 L159.544,75.632 L161.384,75.632 L161.384,77.088 L159.544,77.088 L159.544,81.488 C159.544,82.2026702 159.863997,82.56 160.504,82.56 C160.877335,82.56 161.191999,82.5066672 161.448,82.4 L161.448,83.936 C161.074665,84.0746674 160.637336,84.144 160.136,84.144 Z M167.048,84 L167.048,71.76 L168.984,71.76 L168.984,84 L167.048,84 Z M171.384,84 L171.384,75.632 L173.32,75.632 L173.32,84 L171.384,84 Z M173.144,73.936 C172.919999,74.1493344 172.648002,74.256 172.328,74.256 C172.007998,74.256 171.736001,74.1493344 171.512,73.936 C171.287999,73.7226656 171.176,73.4613349 171.176,73.152 C171.176,72.8319984 171.287999,72.5653344 171.512,72.352 C171.736001,72.1386656 172.007998,72.032 172.328,72.032 C172.648002,72.032 172.919999,72.1386656 173.144,72.352 C173.368001,72.5653344 173.48,72.8319984 173.48,73.152 C173.48,73.4613349 173.368001,73.7226656 173.144,73.936 Z M175.672,84 L175.672,75.632 L177.608,75.632 L177.608,76.96 C177.821334,76.5226645 178.162664,76.1626681 178.632,75.88 C179.101336,75.5973319 179.66133,75.456 180.312,75.456 C181.197338,75.456 181.895997,75.7253306 182.408,76.264 C182.920003,76.8026694 183.176,77.6266611 183.176,78.736 L183.176,84 L181.24,84 L181.24,78.912 C181.24,78.2826635 181.106668,77.8186682 180.84,77.52 C180.573332,77.2213318 180.152003,77.072 179.576,77.072 C178.999997,77.072 178.528002,77.2453316 178.16,77.592 C177.791998,77.9386684 177.608,78.4319968 177.608,79.072 L177.608,84 L175.672,84 Z M185.4,84 L185.4,71.76 L187.336,71.76 L187.336,79.312 L190.328,75.632 L192.44,75.632 L189.192,79.472 L192.712,84 L190.472,84 L187.336,79.888 L187.336,84 L185.4,84 Z M195.256,84.112 C194.903998,84.112 194.605335,83.9920012 194.36,83.752 C194.114665,83.5119988 193.992,83.2160018 193.992,82.864 C193.992,82.5119982 194.114665,82.2133346 194.36,81.968 C194.605335,81.7226654 194.903998,81.6 195.256,81.6 C195.618668,81.6 195.922665,81.7226654 196.168,81.968 C196.413335,82.2133346 196.536,82.5119982 196.536,82.864 C196.536,83.2160018 196.413335,83.5119988 196.168,83.752 C195.922665,83.9920012 195.618668,84.112 195.256,84.112 Z M195.256,79.44 C194.903998,79.44 194.605335,79.3173346 194.36,79.072 C194.114665,78.8266654 193.992,78.5280018 193.992,78.176 C193.992,77.8239982 194.114665,77.5280012 194.36,77.288 C194.605335,77.0479988 194.903998,76.928 195.256,76.928 C195.618668,76.928 195.922665,77.0479988 196.168,77.288 C196.413335,77.5280012 196.536,77.8239982 196.536,78.176 C196.536,78.5280018 196.413335,78.8266654 196.168,79.072 C195.922665,79.3173346 195.618668,79.44 195.256,79.44 Z" id="Nottheweakestlink:" fill="#000000" fill-rule="nonzero"></path>
            </g>
        </g>
    </g>
</svg>