<?xml version="1.0" encoding="UTF-8"?>
<svg width="100%" height="100%" viewBox="0 0 700 387" version="1.1" xmlns="http://www.w3.org/2000/svg" xmlns:xlink="http://www.w3.org/1999/xlink">
    <!-- Generator: Sketch 59.1 (86144) - https://sketch.com -->
    <title>Group 2</title>
    <desc>Created with Sketch.</desc>
    <defs>
        <linearGradient x1="1.484375%" y1="66.4082653%" x2="100%" y2="32.4131028%" id="linearGradient-1">
            <stop stop-color="#3D318C" offset="0%"></stop>
            <stop stop-color="#68C3EC" offset="100%"></stop>
        </linearGradient>
    </defs>
    <g id="Templates" stroke="none" stroke-width="1" fill="none" fill-rule="evenodd">
        <g id="Newsletter_Template-Option_02-Copy" transform="translate(-52.000000, 0.000000)">
            <g id="Top_Banner" transform="translate(52.000000, -14.000000)">
                <g id="Group-2">
                    <rect id="bg_Gradient" fill="url(#linearGradient-1)" x="0" y="0" width="700" height="401"></rect>
                    <rect id="Rectangle" fill="#68C3EC" x="150" y="89" width="375" height="92"></rect>
                    <path d="M98,90 C100.209139,90 102,91.790861 102,94 C102,95.8635652 100.725602,97.429479 99.0007613,97.8737865 L99.0007613,145.126214 L99.0007613,145.126214 L99.1552529,145.169356 C100.801159,145.66505 102,147.192523 102,149 C102,151.142195 100.316032,152.891079 98.1996403,152.995105 L98,153 L98,153 C96.0162261,153 94.3697421,151.55589 94.0544555,149.661579 L92.481,148.8 L82.8640067,143.540047 C82.3627456,143.804531 81.7985048,143.965669 81.1996403,143.995105 L81,144 L81,144 C78.790861,144 77,142.209139 77,140 C77,138.136073 78.2748927,136.569913 80.0002435,136.125955 L80.0002435,125.874045 C79.2823192,125.689313 78.6423881,125.31028 78.1398467,124.796343 L68.7885718,129.713366 L68.7885718,129.713366 L68.8306439,129.844747 C68.940798,130.210504 69,130.598338 69,131 C69,133.142195 67.3160315,134.891079 65.1996403,134.995105 L65,135 L65,135 C62.790861,135 61,133.209139 61,131 C61,130.549887 61.0743461,130.117139 61.2114282,129.713366 L51.8601533,124.796343 C51.3578463,125.31004 50.7182779,125.688959 50.0007613,125.873786 L50.0007613,136.126214 L50.0007613,136.126214 L50.1552529,136.169356 C51.8011592,136.66505 53,138.192523 53,140 C53,142.142195 51.3160315,143.891079 49.1996403,143.995105 L49,144 L49,144 C48.5983384,144 48.2105041,143.940798 47.8447471,143.830644 L47.6954688,143.782448 L47.6954688,143.782448 L35.7851799,150.296582 C35.2465759,151.869339 33.7553279,153 32,153 C29.790861,153 28,151.209139 28,149 C28,147.136073 29.2748927,145.569913 31.0002435,145.125955 L31.0002435,97.8740452 C29.2748927,97.4300871 28,95.8639271 28,94 C28,91.790861 29.790861,90 32,90 C34.1639521,90 35.9265625,91.7183478 35.9977639,93.864976 L42.566,97.703 L62.084,109.106 L62.1805605,109.162614 C62.9036967,108.444023 63.8999948,108 65,108 C66.1000052,108 67.0963033,108.444023 67.8194395,109.162614 L94.003,93.865 L94.0048953,93.8003597 C94.1089211,91.6839685 95.8578046,90 98,90 Z M33.0007613,97.8737865 L33.0007613,145.126214 C34.0889979,145.406536 34.9979311,146.133325 35.5206296,147.099649 L45.3817712,141.707616 C45.1369304,141.189739 45,140.61086 45,140 C45,138.136073 46.2748927,136.569913 48.0002435,136.125955 L48.0002435,125.874045 C46.2748927,125.430087 45,123.863927 45,122 C45,119.790861 46.790861,118 49,118 C51.2011058,118 52.98697,119.77786 52.999929,121.975917 L55.923,123.513 L63.2873187,127.38417 L63.2873187,127.38417 L63.3137009,127.37177 C63.8261267,127.133205 64.3975075,127 65,127 L65,116 L65,116 C62.790861,116 61,114.209139 61,112 L61.001,111.966 L34.9242484,96.7292654 C34.4127601,97.2770608 33.7491621,97.6810034 33.0007613,97.8737865 Z M95.0766791,96.7302583 L68.9998491,111.96489 C68.9999496,111.976582 69,111.988285 69,112 C69,113.480107 68.1961002,114.772453 67.0011092,115.464229 L67,127.233 L77,121.976 L77.0048953,121.80036 C77.1089211,119.683968 78.8578046,118 81,118 C83.209139,118 85,119.790861 85,122 C85,123.863565 83.7256022,125.429479 82.0007613,125.873786 L82.0007613,136.126214 C83.7256022,136.570521 85,138.136435 85,140 C85,140.439757 84.9290356,140.862939 84.7979338,141.258719 L88.015,143.018 L94.7329605,146.691523 L94.7329605,146.691523 L94.7498492,146.667847 C95.25808,145.960814 95.9913142,145.426382 96.8447471,145.169356 L97.0002435,145.125955 L97.0002435,145.125955 L97.0002435,97.8740452 C96.2518842,97.6814813 95.588271,97.277794 95.0766791,96.7302583 Z" id="Combined-Shape-Copy-7" fill="#FFFFFF" fill-rule="nonzero"></path>
                    <rect id="Rectangle" fill="#68C3EC" x="150" y="133" width="218" height="70"></rect>
                    <line x1="124.5" y1="90.5" x2="124.5" y2="230.5" id="Line-6" stroke="#FFFFFF" stroke-linecap="square"></line>
                    <path d="M183.88,104.08 L178.2,116.4 L172.48,104.08 L167.64,104.08 L167.64,128 L171.84,128 L171.84,111.76 L176.48,121.88 L179.88,121.88 L184.52,111.76 L184.52,128 L188.72,128 L188.72,104.08 L183.88,104.08 Z M198.4,128.2 L203,128.2 C203.84,128.2 204.76,127.96 205.52,127.4 C206,127.04 207.08,125.96 207.44,125.48 C208,124.72 208.24,123.8 208.24,122.96 L208.24,115.76 C208.24,114.92 208,114 207.44,113.24 C207.08,112.76 206,111.68 205.52,111.32 C204.76,110.76 203.84,110.52 203,110.52 L198.4,110.52 C197.56,110.52 196.64,110.76 195.88,111.32 C195.4,111.68 194.32,112.76 193.96,113.24 C193.4,114 193.16,114.92 193.16,115.76 L193.16,122.96 C193.16,123.8 193.4,124.72 193.96,125.48 C194.32,125.96 195.4,127.04 195.88,127.4 C196.64,127.96 197.56,128.2 198.4,128.2 Z M197.16,122.8 L197.16,115.92 C197.16,115.632 197.2896,115.4088 197.63628,115.04628 L197.76,114.92 C198.2,114.48 198.44,114.32 198.76,114.32 L202.64,114.32 C202.96,114.32 203.2,114.48 203.64,114.92 C204.08,115.36 204.24,115.6 204.24,115.92 L204.24,122.8 C204.24,123.12 204.08,123.36 203.64,123.8 C203.2,124.24 202.96,124.4 202.64,124.4 L198.76,124.4 C198.44,124.4 198.2,124.24 197.76,123.8 C197.32,123.36 197.16,123.12 197.16,122.8 Z M217.28,128.2 L220.72,128.2 C221.68,128.2 222.56,127.52 223.28,126.96 L223.48,128 L227.4,128 L227.08,124.44 L227.08,104.08 L223.08,104.08 L223.08,111.6 L222.755376,111.372563 C222.141538,110.949586 221.430769,110.52 220.72,110.52 L217.28,110.52 C216.44,110.52 215.52,110.76 214.76,111.32 C214.28,111.68 213.2,112.76 212.84,113.24 C212.28,114 212.04,114.92 212.04,115.76 L212.04,122.96 C212.04,123.8 212.28,124.72 212.84,125.48 C213.2,125.96 214.28,127.04 214.76,127.4 C215.52,127.96 216.44,128.2 217.28,128.2 Z M216.04,122.8 L216.04,115.92 C216.04,115.632 216.1696,115.4088 216.51628,115.04628 L216.64,114.92 C217.08,114.48 217.32,114.32 217.64,114.32 L220.6,114.32 C221.08,114.32 222.48,115.36 223.08,116.08 L223.08,122.64 C222.52,123.24 221.08,124.4 220.6,124.4 L217.64,124.4 C217.32,124.4 217.08,124.24 216.64,123.8 C216.2,123.36 216.04,123.12 216.04,122.8 Z M246.32,121.24 L246.32,115.76 C246.32,114.92 246.08,114 245.52,113.24 C245.16,112.76 244.08,111.68 243.6,111.32 C242.84,110.76 241.92,110.52 241.08,110.52 L236.52,110.52 C235.68,110.52 234.76,110.76 234,111.32 C233.52,111.68 232.44,112.76 232.08,113.24 C231.52,114 231.28,114.92 231.28,115.76 L231.28,122.96 C231.28,123.8 231.52,124.72 232.08,125.48 C232.44,125.96 233.52,127.04 234,127.4 C234.76,127.96 235.68,128.2 236.52,128.2 L240.96,128.2 C243.36,128.2 245.28,125.92 246.28,124 L242.56,122.88 C242.12,123.44 241.48,124.44 241.04,124.44 L236.88,124.44 C236.56,124.44 236.32,124.28 235.88,123.84 C235.44,123.4 235.28,123.16 235.28,122.84 L235.28,121.24 L246.32,121.24 Z M235.75628,115.00628 L235.88,114.88 C236.32,114.44 236.56,114.28 236.88,114.28 L240.72,114.28 C241.04,114.28 241.28,114.44 241.72,114.88 C242.16,115.32 242.32,115.56 242.32,115.88 L242.32,117.76 L235.28,117.76 L235.28,115.88 C235.28,115.592 235.4096,115.3688 235.75628,115.00628 L235.75628,115.00628 Z M265,128.2 L271.8,128.2 C273.2,128.2 274.04,127.84 275.08,126.88 C275.52,126.48 276.4,125.56 276.88,125 C277.6,124.16 277.84,123.36 277.84,122.16 L277.84,119.76 C277.84,117.96 276.76,116 274.72,115.4 L264.28,112.36 C264.08,112.32 263.84,112.04 263.84,111.68 L263.84,109.8 C263.84,109.653333 264.108889,109.305 264.554236,108.847431 L264.68,108.72 C265.24,108.16 265.6,107.88 265.76,107.88 L271.4,107.88 C271.72,107.88 272.6,108.64 273.36,109.8 L277.48,108.72 C277.28,108.2 276.56,107.08 276.08,106.52 C274.84,105.04 273.48,103.88 271.52,103.88 L265.68,103.88 C264.3675,103.88 263.547187,104.196406 262.592842,105.026973 L262.4,105.2 C261.96,105.6 261.08,106.52 260.6,107.08 C259.88,107.92 259.64,108.72 259.64,109.92 L259.64,111.92 C259.64,113.8 260.72,115.72 262.76,116.28 L273.16,119.24 C273.36,119.28 273.64,119.56 273.64,119.92 L273.64,122.28 C273.64,122.44 273.32,122.84 272.8,123.36 C272.24,123.92 271.88,124.2 271.72,124.2 L265.16,124.2 C264.8,124.2 263.92,123.44 263.16,122.28 L259.04,123.36 C259.223333,123.836667 259.843611,124.8175 260.31544,125.409005 L260.44,125.56 C261.68,127.04 263.04,128.2 265,128.2 Z M296.76,121.24 L296.76,115.76 C296.76,114.92 296.52,114 295.96,113.24 C295.6,112.76 294.52,111.68 294.04,111.32 C293.28,110.76 292.36,110.52 291.52,110.52 L286.96,110.52 C286.12,110.52 285.2,110.76 284.44,111.32 C283.96,111.68 282.88,112.76 282.52,113.24 C281.96,114 281.72,114.92 281.72,115.76 L281.72,122.96 C281.72,123.8 281.96,124.72 282.52,125.48 C282.88,125.96 283.96,127.04 284.44,127.4 C285.2,127.96 286.12,128.2 286.96,128.2 L291.4,128.2 C293.8,128.2 295.72,125.92 296.72,124 L293,122.88 C292.56,123.44 291.92,124.44 291.48,124.44 L287.32,124.44 C287,124.44 286.76,124.28 286.32,123.84 C285.88,123.4 285.72,123.16 285.72,122.84 L285.72,121.24 L296.76,121.24 Z M286.19628,115.00628 L286.32,114.88 C286.76,114.44 287,114.28 287.32,114.28 L291.16,114.28 C291.48,114.28 291.72,114.44 292.16,114.88 C292.6,115.32 292.76,115.56 292.76,115.88 L292.76,117.76 L285.72,117.76 L285.72,115.88 C285.72,115.592 285.8496,115.3688 286.19628,115.00628 L286.19628,115.00628 Z M305.8,128.2 L310.28,128.2 C312.68,128.2 314.6,125.92 315.6,124 L311.88,122.88 C311.44,123.44 310.76,124.4 310.32,124.4 L306.16,124.4 C305.84,124.4 305.6,124.24 305.16,123.8 C304.72,123.36 304.56,123.12 304.56,122.8 L304.56,115.92 C304.56,115.6 304.72,115.36 305.16,114.92 C305.6,114.48 305.84,114.32 306.16,114.32 L310.24,114.32 C310.68,114.32 311.36,115.28 311.8,115.84 L315.52,114.72 C314.52,112.8 312.6,110.52 310.2,110.52 L305.8,110.52 C304.96,110.52 304.04,110.76 303.28,111.32 C302.8,111.68 301.72,112.76 301.36,113.24 C300.8,114 300.56,114.92 300.56,115.76 L300.56,122.96 C300.56,123.8 300.8,124.72 301.36,125.48 C301.72,125.96 302.8,127.04 303.28,127.4 C304.04,127.96 304.96,128.2 305.8,128.2 Z M330.28,128 L334.16,128 L333.8,124.44 L333.8,110.72 L329.8,110.72 L329.8,122.76 L329.580469,122.99125 C329.015,123.573125 328.105,124.4 327.44,124.4 L324.6,124.4 C324.28,124.4 324.04,124.24 323.6,123.8 C323.16,123.36 323,123.12 323,122.8 L323,110.72 L319,110.72 L319,122.96 C319,123.8 319.24,124.72 319.8,125.48 C320.16,125.96 321.24,127.04 321.72,127.4 C322.48,127.96 323.4,128.2 324.24,128.2 L327.56,128.2 C328.48,128.2 329.36,127.48 330.08,126.96 L330.28,128 Z M338.52,128 L342.52,128 L342.52,115.96 C343,115.36 344.08,114.32 344.88,114.32 L347.44,114.32 C347.88,114.32 348.56,115.28 349,115.84 L352.72,114.72 C351.72,112.8 349.8,110.52 347.4,110.52 L344.76,110.52 C343.84,110.52 342.92,111.2 342.2,111.76 L341.96,110.72 L338.12,110.72 L338.52,114.28 L338.52,128 Z M354.88,108.28 L359.16,108.28 L359.16,104 L354.88,104 L354.88,108.28 Z M355.04,128 L359.04,128 L359.04,110.72 L355.04,110.72 L355.04,128 Z M373.48,114.52 L373.48,110.72 L368.52,110.72 L368.52,104.08 L364.52,104.08 L364.52,110.72 L361.84,110.72 L361.84,114.52 L364.52,114.52 L364.52,122.76 C364.52,123.6 364.76,124.52 365.32,125.28 C365.68,125.76 366.76,126.84 367.24,127.2 C368,127.76 368.92,128 369.76,128 L372.84,128 L372.84,124.2 L370.12,124.2 C369.8,124.2 369.56,124.04 369.12,123.6 C368.68,123.16 368.52,122.92 368.52,122.6 L368.52,114.52 L373.48,114.52 Z M386.96,110.72 L382.92,122.48 L378.84,110.72 L374.44,110.72 L380.72,128 L381.08,128 L378.68,134.48 L382.72,134.48 L391.2,110.72 L386.96,110.72 Z M184.32,141.64 C183.92,141.2 183,140.32 182.44,139.84 C181.6,139.12 180.8,138.88 179.6,138.88 L173.52,138.88 C172.2075,138.88 171.387187,139.196406 170.432842,140.026973 L170.24,140.2 C169.8,140.6 168.92,141.52 168.44,142.08 C167.72,142.92 167.48,143.72 167.48,144.92 L167.48,157.16 C167.48,158.56 167.84,159.4 168.8,160.44 C169.2,160.88 170.12,161.76 170.68,162.24 C171.52,162.96 172.32,163.2 173.52,163.2 L176.2,163.2 L177.6,166.68 L182.04,166.68 L180.56,163.12 C181.44,162.96 182.12,162.6 182.88,161.88 C183.32,161.48 184.2,160.56 184.68,160 C185.4,159.16 185.64,158.36 185.64,157.16 L185.64,144.92 C185.64,143.52 185.28,142.68 184.32,141.64 Z M181.44,157.28 C181.44,157.44 181.12,157.84 180.6,158.36 C180.04,158.92 179.68,159.2 179.52,159.2 L178.92,159.2 L178.16,157.32 L174.32,158.6 L174.56,159.2 L173.6,159.2 C173.453333,159.2 173.105,158.931111 172.647431,158.485764 L172.52,158.36 C171.96,157.8 171.68,157.44 171.68,157.28 L171.68,144.8 C171.68,144.653333 171.948889,144.305 172.394236,143.847431 L172.52,143.72 C173.08,143.16 173.44,142.88 173.6,142.88 L179.52,142.88 C179.666667,142.88 180.015,143.148889 180.472569,143.594236 L180.6,143.72 C181.16,144.28 181.44,144.64 181.44,144.8 L181.44,157.28 Z M201.48,163 L205.36,163 L205,159.44 L205,145.72 L201,145.72 L201,157.76 L200.780469,157.99125 C200.215,158.573125 199.305,159.4 198.64,159.4 L195.8,159.4 C195.48,159.4 195.24,159.24 194.8,158.8 C194.36,158.36 194.2,158.12 194.2,157.8 L194.2,145.72 L190.2,145.72 L190.2,157.96 C190.2,158.8 190.44,159.72 191,160.48 C191.36,160.96 192.44,162.04 192.92,162.4 C193.68,162.96 194.6,163.2 195.44,163.2 L198.76,163.2 C199.68,163.2 200.56,162.48 201.28,161.96 L201.48,163 Z M223.52,159.48 L223.52,150.76 C223.52,149.92 223.28,149 222.72,148.24 C222.36,147.76 221.28,146.68 220.8,146.32 C220.04,145.76 219.12,145.52 218.28,145.52 L214.36,145.52 C211.96,145.52 210.04,147.8 209.04,149.72 L212.76,150.84 L213.04896,150.46688 C213.4624,149.9344 213.968,149.32 214.32,149.32 L217.92,149.32 C218.24,149.32 218.48,149.48 218.92,149.92 C219.36,150.36 219.52,150.6 219.52,150.92 L219.52,152.4 L213.76,152.4 C212.92,152.4 212,152.64 211.24,153.2 C210.76,153.56 209.68,154.64 209.32,155.12 C208.76,155.88 208.52,156.8 208.52,157.64 L208.52,157.96 C208.52,158.8 208.76,159.72 209.32,160.48 C209.68,160.96 210.76,162.04 211.24,162.4 C212,162.96 212.92,163.2 213.76,163.2 L217.28,163.2 C218.2,163.2 219,162.6 219.72,162.08 L219.88,163 L223.84,163 L223.52,159.48 Z M217.16,159.56 L214.12,159.56 C213.832,159.56 213.6088,159.4304 213.24628,159.08372 L213.12,158.96 C212.68,158.52 212.52,158.28 212.52,157.96 L212.52,157.4 C212.52,157.112 212.6496,156.8888 212.99628,156.52628 L213.12,156.4 C213.56,155.96 213.8,155.8 214.12,155.8 L219.52,155.8 L219.52,157.96 C219.2,158.32 217.6,159.56 217.16,159.56 Z M228.2,163 L232.2,163 L232.2,150.96 C232.68,150.36 233.76,149.32 234.56,149.32 L237.12,149.32 C237.56,149.32 238.24,150.28 238.68,150.84 L242.4,149.72 C241.4,147.8 239.48,145.52 237.08,145.52 L234.44,145.52 C233.52,145.52 232.6,146.2 231.88,146.76 L231.64,145.72 L227.8,145.72 L228.2,149.28 L228.2,163 Z M255.32,149.52 L255.32,145.72 L250.36,145.72 L250.36,139.08 L246.36,139.08 L246.36,145.72 L243.68,145.72 L243.68,149.52 L246.36,149.52 L246.36,157.76 C246.36,158.6 246.6,159.52 247.16,160.28 C247.52,160.76 248.6,161.84 249.08,162.2 C249.84,162.76 250.76,163 251.6,163 L254.68,163 L254.68,159.2 L251.96,159.2 C251.64,159.2 251.4,159.04 250.96,158.6 C250.52,158.16 250.36,157.92 250.36,157.6 L250.36,149.52 L255.32,149.52 Z M273.36,156.24 L273.36,150.76 C273.36,149.92 273.12,149 272.56,148.24 C272.2,147.76 271.12,146.68 270.64,146.32 C269.88,145.76 268.96,145.52 268.12,145.52 L263.56,145.52 C262.72,145.52 261.8,145.76 261.04,146.32 C260.56,146.68 259.48,147.76 259.12,148.24 C258.56,149 258.32,149.92 258.32,150.76 L258.32,157.96 C258.32,158.8 258.56,159.72 259.12,160.48 C259.48,160.96 260.56,162.04 261.04,162.4 C261.8,162.96 262.72,163.2 263.56,163.2 L268,163.2 C270.4,163.2 272.32,160.92 273.32,159 L269.6,157.88 C269.16,158.44 268.52,159.44 268.08,159.44 L263.92,159.44 C263.6,159.44 263.36,159.28 262.92,158.84 C262.48,158.4 262.32,158.16 262.32,157.84 L262.32,156.24 L273.36,156.24 Z M262.92,149.88 C263.36,149.44 263.6,149.28 263.92,149.28 L267.76,149.28 C268.08,149.28 268.32,149.44 268.76,149.88 C269.2,150.32 269.36,150.56 269.36,150.88 L269.36,152.76 L262.32,152.76 L262.32,150.88 C262.32,150.56 262.48,150.32 262.92,149.88 Z M277.64,163 L281.64,163 L281.64,150.96 C282.12,150.36 283.2,149.32 284,149.32 L286.56,149.32 C287,149.32 287.68,150.28 288.12,150.84 L291.84,149.72 C290.84,147.8 288.92,145.52 286.52,145.52 L283.88,145.52 C282.96,145.52 282.04,146.2 281.32,146.76 L281.08,145.72 L277.24,145.72 L277.64,149.28 L277.64,163 Z M294.52,163 L298.56,163 L298.04,159.48 L298.04,139.08 L294.04,139.08 L294.04,159.92 L294.52,163 Z M312.84,145.72 L308.8,157.48 L304.72,145.72 L300.32,145.72 L306.6,163 L306.96,163 L304.56,169.48 L308.6,169.48 L317.08,145.72 L312.84,145.72 Z M341.4,139.08 L341.4,155.2 L333.2,139.08 L328.68,139.08 L328.68,163 L332.88,163 L332.88,147.12 L341.16,163 L345.6,163 L345.6,139.08 L341.4,139.08 Z M365.08,156.24 L365.08,150.76 C365.08,149.92 364.84,149 364.28,148.24 C363.92,147.76 362.84,146.68 362.36,146.32 C361.6,145.76 360.68,145.52 359.84,145.52 L355.28,145.52 C354.44,145.52 353.52,145.76 352.76,146.32 C352.28,146.68 351.2,147.76 350.84,148.24 C350.28,149 350.04,149.92 350.04,150.76 L350.04,157.96 C350.04,158.8 350.28,159.72 350.84,160.48 C351.2,160.96 352.28,162.04 352.76,162.4 C353.52,162.96 354.44,163.2 355.28,163.2 L359.72,163.2 C362.12,163.2 364.04,160.92 365.04,159 L361.32,157.88 C360.88,158.44 360.24,159.44 359.8,159.44 L355.64,159.44 C355.32,159.44 355.08,159.28 354.64,158.84 C354.2,158.4 354.04,158.16 354.04,157.84 L354.04,156.24 L365.08,156.24 Z M354.51628,150.00628 L354.64,149.88 C355.08,149.44 355.32,149.28 355.64,149.28 L359.48,149.28 C359.8,149.28 360.04,149.44 360.48,149.88 C360.92,150.32 361.08,150.56 361.08,150.88 L361.08,152.76 L354.04,152.76 L354.04,150.88 C354.04,150.592 354.1696,150.3688 354.51628,150.00628 L354.51628,150.00628 Z M388,145.72 L384.88,156.84 L381.64,145.72 L377.44,145.72 L374.12,156.84 L371.08,145.72 L366.84,145.72 L371.96,163 L376.04,163 L379.52,151.84 L382.92,163 L387,163 L392.2,145.72 L388,145.72 Z M398.4,163.2 L403.48,163.2 C404.32,163.2 405.24,162.96 406,162.4 C406.48,162.04 407.56,160.96 407.92,160.48 C408.48,159.72 408.72,158.8 408.72,157.96 L408.72,156.96 C408.72,154.32 406.92,153.08 404.76,152.84 L398.28,152.12 C397.88,152.08 397.68,151.92 397.68,151.6 L397.68,150.92 C397.68,150.632 397.8096,150.4088 398.15628,150.04628 L398.28,149.92 C398.72,149.48 398.96,149.32 399.28,149.32 L403.32,149.32 C403.76,149.32 404.44,150.28 404.88,150.84 L408.6,149.72 C407.6,147.8 405.68,145.52 403.28,145.52 L398.92,145.52 C398.08,145.52 397.16,145.76 396.4,146.32 C395.92,146.68 394.84,147.76 394.48,148.24 C393.92,149 393.68,149.92 393.68,150.76 L393.68,151.76 C393.68,154.32 395.32,155.64 397.44,155.84 L404.16,156.48 C404.56,156.52 404.72,156.72 404.72,157.04 L404.72,157.8 C404.72,158.12 404.56,158.36 404.12,158.8 C403.68,159.24 403.44,159.4 403.12,159.4 L398.36,159.4 C397.92,159.4 397.24,158.44 396.8,157.88 L393.08,159 C394.08,160.92 396,163.2 398.4,163.2 Z M412.92,163 L416.96,163 L416.44,159.48 L416.44,139.08 L412.44,139.08 L412.44,159.92 L412.92,163 Z M435.8,156.24 L435.8,150.76 C435.8,149.92 435.56,149 435,148.24 C434.64,147.76 433.56,146.68 433.08,146.32 C432.32,145.76 431.4,145.52 430.56,145.52 L426,145.52 C425.16,145.52 424.24,145.76 423.48,146.32 C423,146.68 421.92,147.76 421.56,148.24 C421,149 420.76,149.92 420.76,150.76 L420.76,157.96 C420.76,158.8 421,159.72 421.56,160.48 C421.92,160.96 423,162.04 423.48,162.4 C424.24,162.96 425.16,163.2 426,163.2 L430.44,163.2 C432.84,163.2 434.76,160.92 435.76,159 L432.04,157.88 C431.6,158.44 430.96,159.44 430.52,159.44 L426.36,159.44 C426.04,159.44 425.8,159.28 425.36,158.84 C424.92,158.4 424.76,158.16 424.76,157.84 L424.76,156.24 L435.8,156.24 Z M425.23628,150.00628 L425.36,149.88 C425.8,149.44 426.04,149.28 426.36,149.28 L430.2,149.28 C430.52,149.28 430.76,149.44 431.2,149.88 C431.64,150.32 431.8,150.56 431.8,150.88 L431.8,152.76 L424.76,152.76 L424.76,150.88 C424.76,150.592 424.8896,150.3688 425.23628,150.00628 L425.23628,150.00628 Z M449.92,149.52 L449.92,145.72 L444.96,145.72 L444.96,139.08 L440.96,139.08 L440.96,145.72 L438.28,145.72 L438.28,149.52 L440.96,149.52 L440.96,157.76 C440.96,158.6 441.2,159.52 441.76,160.28 C442.12,160.76 443.2,161.84 443.68,162.2 C444.44,162.76 445.36,163 446.2,163 L449.28,163 L449.28,159.2 L446.56,159.2 C446.24,159.2 446,159.04 445.56,158.6 C445.12,158.16 444.96,157.92 444.96,157.6 L444.96,149.52 L449.92,149.52 Z M463.24,149.52 L463.24,145.72 L458.28,145.72 L458.28,139.08 L454.28,139.08 L454.28,145.72 L451.6,145.72 L451.6,149.52 L454.28,149.52 L454.28,157.76 C454.28,158.6 454.52,159.52 455.08,160.28 C455.44,160.76 456.52,161.84 457,162.2 C457.76,162.76 458.68,163 459.52,163 L462.6,163 L462.6,159.2 L459.88,159.2 C459.56,159.2 459.32,159.04 458.88,158.6 C458.44,158.16 458.28,157.92 458.28,157.6 L458.28,149.52 L463.24,149.52 Z M481.28,156.24 L481.28,150.76 C481.28,149.92 481.04,149 480.48,148.24 C480.12,147.76 479.04,146.68 478.56,146.32 C477.8,145.76 476.88,145.52 476.04,145.52 L471.48,145.52 C470.64,145.52 469.72,145.76 468.96,146.32 C468.48,146.68 467.4,147.76 467.04,148.24 C466.48,149 466.24,149.92 466.24,150.76 L466.24,157.96 C466.24,158.8 466.48,159.72 467.04,160.48 C467.4,160.96 468.48,162.04 468.96,162.4 C469.72,162.96 470.64,163.2 471.48,163.2 L475.92,163.2 C478.32,163.2 480.24,160.92 481.24,159 L477.52,157.88 C477.08,158.44 476.44,159.44 476,159.44 L471.84,159.44 C471.52,159.44 471.28,159.28 470.84,158.84 C470.4,158.4 470.24,158.16 470.24,157.84 L470.24,156.24 L481.28,156.24 Z M470.71628,150.00628 L470.84,149.88 C471.28,149.44 471.52,149.28 471.84,149.28 L475.68,149.28 C476,149.28 476.24,149.44 476.68,149.88 C477.12,150.32 477.28,150.56 477.28,150.88 L477.28,152.76 L470.24,152.76 L470.24,150.88 C470.24,150.592 470.3696,150.3688 470.71628,150.00628 L470.71628,150.00628 Z M485.56,163 L485.56,149.28 L485.16,145.72 L489,145.72 L489.24,146.76 L489.560233,146.514985 C490.222857,146.019592 491.011429,145.52 491.8,145.52 L494.44,145.52 C496.84,145.52 498.76,147.8 499.76,149.72 L496.04,150.84 L495.75104,150.46688 C495.3376,149.9344 494.832,149.32 494.48,149.32 L491.92,149.32 C491.12,149.32 490.04,150.36 489.56,150.96 L489.56,163 L485.56,163 Z" id="ModeSecurityQuarterlyNewsletter" fill-opacity="0.85" fill="#000000" fill-rule="nonzero"></path>
                    <rect id="Rectangle" fill="#FFFFFF" x="235" y="368" width="465" height="33"></rect>
                </g>
            </g>
        </g>
    </g>
</svg>